<mxfile host="app.diagrams.net" modified="2023-11-21T09:53:31.236Z" agent="Mozilla/5.0 (Windows NT 10.0; Win64; x64) AppleWebKit/537.36 (KHTML, like Gecko) Chrome/118.0.0.0 Safari/537.36 Edg/118.0.2088.61" version="22.1.3" etag="M8rabSe2dzoVnwxpZlzm" type="github">
  <diagram name="Seite-1" id="_GzZvmdGvENn4J0Ye67l">
    <mxGraphModel>
      <root>
        <mxCell id="0" />
        <mxCell id="1" parent="0" />
      </root>
    </mxGraphModel>
  </diagram>
</mxfile>
